HIERARCHY
ROOT Hips
{
	OFFSET 0.000000 0.000000 0.000000
	CHANNELS 6 Xposition Yposition Zposition Zrotation Xrotation Yrotation
	JOINT Spine1
	{
		OFFSET 0.000000 -2.082711 -0.000001
		CHANNELS 6 Xposition Yposition Zposition Zrotation Xrotation Yrotation
		JOINT Neck
		{
			OFFSET 0.000000 -1.660410 -0.000001
			CHANNELS 6 Xposition Yposition Zposition Zrotation Xrotation Yrotation
			JOINT Head
			{
				OFFSET 0.000000 -1.055760 -0.136227
				CHANNELS 6 Xposition Yposition Zposition Zrotation Xrotation Yrotation
				End Site
				{
					OFFSET 0.000000 -1.362267 -0.000000
				}
			}
		}
		JOINT LeftShoulder
		{
			OFFSET 0.274325 -1.340693 0.036009
			CHANNELS 6 Xposition Yposition Zposition Zrotation Xrotation Yrotation
			JOINT LeftArm
			{
				OFFSET 0.978870 0.000000 0.000000
				CHANNELS 6 Xposition Yposition Zposition Zrotation Xrotation Yrotation
				JOINT LeftForeArm
				{
					OFFSET 1.919408 0.000000 0.000000
					CHANNELS 6 Xposition Yposition Zposition Zrotation Xrotation Yrotation
					JOINT LeftHand
					{
						OFFSET 1.783837 0.000000 0.000000
						CHANNELS 6 Xposition Yposition Zposition Zrotation Xrotation Yrotation
						End Site
						{
							OFFSET 1.021700 0.000000 0.000000
						}
					}
				}
			}
		}
		JOINT RightShoulder
		{
			OFFSET -0.270541 -1.340693 0.036009
			CHANNELS 6 Xposition Yposition Zposition Zrotation Xrotation Yrotation
			JOINT RightArm
			{
				OFFSET -0.978870 0.000000 0.000000
				CHANNELS 6 Xposition Yposition Zposition Zrotation Xrotation Yrotation
				JOINT RightForeArm
				{
					OFFSET -1.919407 0.000000 0.000000
					CHANNELS 6 Xposition Yposition Zposition Zrotation Xrotation Yrotation
					JOINT RightHand
					{
						OFFSET -1.783838 0.000000 0.000000
						CHANNELS 6 Xposition Yposition Zposition Zrotation Xrotation Yrotation
						End Site
						{
							OFFSET -1.021700 0.000000 0.000000
						}
					}
				}
			}
		}
	}
	JOINT LeftUpLeg
	{
		OFFSET 0.681135 0.000000 0.000000
		CHANNELS 6 Xposition Yposition Zposition Zrotation Xrotation Yrotation
		JOINT LeftLeg
		{
			OFFSET 0.000000 2.864618 0.000001
			CHANNELS 6 Xposition Yposition Zposition Zrotation Xrotation Yrotation
			JOINT LeftFoot
			{
				OFFSET 0.000000 3.003225 0.000001
				CHANNELS 6 Xposition Yposition Zposition Zrotation Xrotation Yrotation
				JOINT LeftToeBase
				{
					OFFSET 0.000000 0.442738 -1.021702
					CHANNELS 6 Xposition Yposition Zposition Zrotation Xrotation Yrotation
					End Site
					{
						OFFSET 0.000000 0.000000 -0.272454
					}
				}
			}
		}
	}
	JOINT RightUpLeg
	{
		OFFSET -0.681135 0.000000 0.000000
		CHANNELS 6 Xposition Yposition Zposition Zrotation Xrotation Yrotation
		JOINT RightLeg
		{
			OFFSET 0.000000 2.864618 0.000001
			CHANNELS 6 Xposition Yposition Zposition Zrotation Xrotation Yrotation
			JOINT RightFoot
			{
				OFFSET 0.000000 3.003225 0.000001
				CHANNELS 6 Xposition Yposition Zposition Zrotation Xrotation Yrotation
				JOINT RightToeBase
				{
					OFFSET 0.000000 0.442738 -1.021702
					CHANNELS 6 Xposition Yposition Zposition Zrotation Xrotation Yrotation
					End Site
					{
						OFFSET 0.000000 0.000000 -0.272454
					}
				}
			}
		}
	}
}
MOTION
Frames: 6
Frame Time: 0.016667
0.852397 -5.600456 0.117710 -4.698773 10.118756 4.864653 -0.000000 -2.082710 -0.000000 -4.279143 -5.281749 -4.476209 0.000000 -1.660409 -0.000000 0.873463 6.647767 3.763581 -0.000000 -1.055762 -0.136227 -8.834731 17.210231 6.485216 0.274325 -1.340690 0.036009 -18.470008 -7.391398 -2.344120 0.978870 0.000000 -0.000000 18.108151 13.515840 16.229450 1.919407 0.000000 -0.000000 -26.849434 -18.887751 38.798032 1.783838 -0.000001 -0.000000 -30.914918 -7.273134 -8.271870 -0.270540 -1.340693 0.036009 13.368301 -6.285542 -1.250369 -0.978870 0.000000 -0.000000 -36.875075 43.642416 -43.332212 -1.919408 -0.000000 -0.000000 -8.829812 -33.160504 -117.368714 -1.783838 0.000001 0.000002 11.058471 -43.836195 9.640308 0.681135 0.000001 -0.000000 -21.765928 -22.087981 -29.240562 -0.000000 2.864616 0.000000 18.625825 35.138031 -20.678512 -0.000001 3.003225 0.000001 0.748597 -8.371493 -17.906915 -0.000000 0.442738 -1.021702 0.000002 -0.000001 0.000003 -0.681135 0.000001 -0.000000 38.313960 -21.703315 7.094426 0.000001 2.864617 0.000000 -29.767515 17.225573 35.903996 0.000001 3.003226 0.000001 -7.747417 -2.744836 27.886990 0.000000 0.442738 -1.021702 0.000001 -0.000002 0.000001 
0.851264 -5.600836 0.119693 -4.639836 10.066583 4.797275 0.000000 -2.082710 -0.000001 -4.228656 -5.136976 -4.646014 0.000000 -1.660409 -0.000001 0.845065 6.766243 4.167768 0.000000 -1.055760 -0.136227 -9.501579 17.685972 7.119838 0.274325 -1.340691 0.036009 -18.339374 -7.411198 -2.222258 0.978871 0.000001 -0.000000 18.199025 13.713586 16.593168 1.919406 0.000001 -0.000001 -27.410833 -19.052364 39.438441 1.783837 -0.000002 -0.000000 -31.530264 -7.093003 -7.988905 -0.270540 -1.340692 0.036009 13.237425 -6.283319 -1.384177 -0.978870 0.000002 -0.000000 -35.648120 44.912056 -44.677196 -1.919407 0.000000 -0.000000 -9.754658 -33.139774 -117.691331 -1.783838 0.000000 -0.000000 12.566987 -44.903644 9.783902 0.681135 0.000001 -0.000000 -21.801083 -22.079855 -29.186607 0.000000 2.864616 0.000000 18.602029 35.145063 -20.634302 -0.000001 3.003225 0.000001 0.778422 -8.365128 -17.921976 -0.000000 0.442737 -1.021702 0.000001 -0.000003 0.000009 -0.681135 0.000001 -0.000000 38.257416 -21.507982 6.123051 0.000001 2.864617 0.000001 -30.044868 16.522352 36.528764 0.000001 3.003225 0.000001 -7.631865 -2.732611 28.074789 0.000000 0.442738 -1.021702 0.000001 0.000000 0.000002 
0.849931 -5.601244 0.122386 -4.555116 10.033079 4.714844 -0.000000 -2.082711 -0.000001 -4.178009 -4.961726 -4.769874 0.000000 -1.660410 -0.000000 0.820770 6.835874 4.564757 -0.000000 -1.055763 -0.136227 -10.156266 18.122334 7.745989 0.274325 -1.340692 0.036009 -18.254106 -7.471390 -2.158663 0.978869 0.000000 0.000000 18.332127 13.980792 16.913311 1.919407 0.000000 0.000000 -28.116078 -19.209678 40.044658 1.783837 -0.000001 0.000001 -31.893319 -6.850120 -7.781424 -0.270541 -1.340693 0.036009 13.143529 -6.342030 -1.538726 -0.978870 -0.000000 -0.000000 -34.910111 46.030861 -45.368872 -1.919407 0.000000 -0.000000 -11.405732 -32.280400 -118.663772 -1.783839 -0.000000 0.000001 10.788393 -46.527037 9.855249 0.681135 0.000000 0.000000 -21.868430 -22.104640 -29.146046 0.000001 2.864616 0.000000 18.574862 35.170024 -20.530756 -0.000001 3.003224 0.000001 0.754655 -8.353318 -17.987500 0.000001 0.442738 -1.021702 -0.000003 0.000001 0.000005 -0.681135 0.000000 -0.000000 38.155435 -21.445688 6.128590 0.000001 2.864617 0.000000 -30.016325 16.503549 36.571616 0.000001 3.003226 0.000001 -7.654777 -2.709730 28.048515 -0.000000 0.442738 -1.021703 -0.000001 0.000000 0.000002 
0.848805 -5.601277 0.124715 -4.480129 9.981251 4.623220 0.000000 -2.082710 -0.000001 -4.121043 -4.799271 -4.914224 0.000000 -1.660412 -0.000000 0.821143 6.967406 4.953509 0.000000 -1.055761 -0.136227 -10.884694 18.472957 8.387084 0.274325 -1.340694 0.036009 -18.149430 -7.494189 -2.025777 0.978870 0.000001 -0.000000 18.490034 14.166198 17.164506 1.919408 -0.000001 0.000000 -28.685715 -19.495047 40.809602 1.783836 0.000001 -0.000000 -32.358045 -6.745453 -7.530073 -0.270541 -1.340694 0.036009 13.031701 -6.370009 -1.674692 -0.978870 0.000002 -0.000001 -33.876581 47.101845 -46.294892 -1.919407 0.000000 -0.000001 -12.830909 -31.562905 -119.360356 -1.783839 0.000001 0.000000 10.270902 -47.903798 9.845693 0.681135 0.000001 0.000000 -21.920567 -22.122832 -29.149704 -0.000000 2.864616 0.000000 18.509029 35.218641 -20.480674 -0.000001 3.003225 0.000001 0.764896 -8.342896 -17.936410 0.000000 0.442738 -1.021702 -0.000001 0.000004 0.000002 -0.681135 0.000000 0.000000 38.089325 -21.404915 6.506543 0.000000 2.864616 0.000000 -29.925931 16.749504 36.391647 0.000001 3.003225 0.000001 -7.707822 -2.682671 27.936478 0.000000 0.442738 -1.021702 -0.000000 -0.000001 -0.000004 
0.848075 -5.601270 0.127135 -4.409488 9.951517 4.531015 0.000000 -2.082710 -0.000001 -4.049587 -4.654399 -5.042859 0.000000 -1.660409 -0.000000 0.761553 7.058733 5.361691 0.000000 -1.055761 -0.136226 -11.489537 18.866422 9.008822 0.274325 -1.340691 0.036009 -18.044308 -7.546783 -1.916173 0.978870 0.000000 -0.000000 18.673008 14.315007 17.395886 1.919407 0.000002 -0.000000 -29.307655 -19.669910 41.577137 1.783836 -0.000000 -0.000001 -32.729000 -6.524554 -7.194783 -0.270541 -1.340691 0.036009 12.953036 -6.450482 -1.841077 -0.978871 0.000001 -0.000001 -32.533526 48.279759 -47.501859 -1.919407 -0.000001 -0.000001 -14.423037 -30.643487 -120.094588 -1.783839 -0.000000 0.000000 11.653361 -49.217237 10.720570 0.681135 0.000001 0.000000 -21.969443 -22.153652 -29.107121 -0.000000 2.864617 0.000000 18.488762 35.241666 -20.407903 -0.000001 3.003226 0.000002 0.743043 -8.342776 -17.966737 -0.000000 0.442738 -1.021702 -0.000002 -0.000001 0.000002 -0.681135 0.000001 0.000000 38.035490 -21.276020 6.095344 0.000001 2.864617 0.000000 -30.054362 16.414114 36.697527 0.000001 3.003226 0.000001 -7.673632 -2.670915 28.006079 -0.000000 0.442738 -1.021703 0.000001 -0.000001 0.000005 
0.847243 -5.601074 0.129715 -4.319563 9.943460 4.433936 0.000000 -2.082709 -0.000001 -3.992867 -4.475475 -5.196342 0.000000 -1.660410 -0.000001 0.625403 7.144143 5.822023 -0.000000 -1.055761 -0.136227 -12.020044 19.138684 9.639001 0.274326 -1.340694 0.036009 -17.972200 -7.583599 -1.769955 0.978870 -0.000001 -0.000000 18.841628 14.490822 17.627718 1.919407 0.000000 -0.000000 -30.015208 -19.929780 42.297801 1.783838 -0.000001 -0.000001 -32.822040 -6.327792 -7.037959 -0.270540 -1.340693 0.036009 12.872653 -6.487915 -1.941052 -0.978870 0.000001 -0.000000 -30.947761 49.588184 -48.703555 -1.919407 -0.000001 -0.000001 -15.068425 -30.821918 -120.325476 -1.783838 0.000001 -0.000000 8.769356 -50.458053 9.239910 0.681135 0.000001 0.000000 -22.055400 -22.215009 -29.072038 0.000000 2.864616 0.000000 18.486486 35.284525 -20.382516 -0.000001 3.003225 0.000002 0.727238 -8.343741 -17.965254 0.000000 0.442738 -1.021703 -0.000001 -0.000000 0.000005 -0.681135 0.000000 0.000000 37.980858 -21.234349 6.445694 0.000001 2.864617 0.000000 -30.010417 16.570814 36.480669 0.000001 3.003226 0.000001 -7.718518 -2.647059 27.979110 0.000000 0.442738 -1.021702 -0.000001 -0.000001 0.000002 
